<?xml version="1.0" standalone="no"?>
<!DOCTYPE svg PUBLIC "-//W3C//DTD SVG 20010904//EN"
 "http://www.w3.org/TR/2001/REC-SVG-20010904/DTD/svg10.dtd">
<svg version="1.0" xmlns="http://www.w3.org/2000/svg"
 width="1024.000000pt" height="600.000000pt" viewBox="0 0 1024.000000 600.000000"
 preserveAspectRatio="xMidYMid meet">

<g transform="translate(0.000000,600.000000) scale(0.100000,-0.100000)"
fill="#000000" stroke="none">
<path d="M5655 3396 c-265 -64 -398 -347 -278 -592 30 -61 109 -141 171 -173
166 -85 408 -62 547 52 28 23 28 25 13 48 -9 13 -29 39 -45 58 l-29 34 -43
-31 c-60 -44 -133 -66 -216 -65 -152 1 -256 93 -271 239 -11 107 37 211 122
260 39 23 62 29 131 32 95 5 153 -8 217 -48 l43 -27 41 53 c23 30 42 58 42 62
0 16 -116 77 -179 94 -77 20 -194 22 -266 4z"/>
<path d="M8023 3395 c-174 -49 -286 -169 -312 -335 -27 -172 50 -335 200 -423
135 -80 375 -75 516 9 107 65 103 55 103 231 l0 153 -195 0 -195 0 0 -70 0
-70 120 0 120 0 0 -53 c0 -48 -3 -54 -31 -71 -43 -26 -125 -46 -185 -46 -114
0 -210 53 -259 142 -26 46 -30 63 -29 133 0 62 5 89 21 120 25 47 75 96 121
120 85 42 224 36 325 -16 33 -16 60 -29 62 -27 1 2 18 25 38 52 20 27 37 53
37 57 0 14 -78 60 -139 81 -75 27 -246 34 -318 13z"/>
<path d="M630 2991 l0 -401 238 0 c289 1 358 8 420 47 150 93 147 336 -5 394
l-24 9 35 30 c43 38 60 86 54 155 -5 63 -34 107 -91 138 -40 21 -54 22 -334
25 l-293 3 0 -400z m505 249 c50 -19 64 -100 23 -137 -17 -16 -43 -18 -194
-21 l-174 -3 0 85 0 86 159 0 c88 0 171 -4 186 -10z m71 -333 c33 -38 33 -96
0 -134 l-24 -28 -196 -3 -196 -3 0 101 0 101 196 -3 196 -3 24 -28z"/>
<path d="M1732 2998 c-106 -216 -192 -397 -192 -401 0 -4 37 -7 83 -5 l82 3
43 88 43 87 213 0 213 0 41 -90 42 -90 85 0 c47 0 85 2 85 6 0 3 -86 183 -192
400 l-192 394 -81 0 -81 0 -192 -392z m416 -87 c-2 -3 -69 -4 -149 -1 l-145 5
74 155 75 155 74 -154 c40 -85 72 -157 71 -160z"/>
<path d="M2660 2990 l0 -400 270 0 270 0 0 75 0 75 -190 0 -190 0 0 325 0 325
-80 0 -80 0 0 -400z"/>
<path d="M3422 2993 l3 -398 335 0 335 0 3 73 3 72 -261 0 -260 0 0 100 0 100
195 0 195 0 0 70 0 70 -195 0 -195 0 0 85 0 85 250 0 250 0 0 70 0 70 -330 0
-330 0 2 -397z"/>
<path d="M4347 2993 l2 -398 76 -3 76 -3 -3 281 c-2 154 -1 280 2 280 3 0 18
-19 35 -43 40 -58 350 -444 389 -485 30 -32 33 -33 101 -30 l70 3 3 398 2 397
-81 0 -81 0 3 -280 c2 -154 3 -280 3 -280 -1 0 -28 35 -59 78 -32 42 -131 168
-219 279 l-161 203 -80 0 -80 0 2 -397z"/>
<path d="M6332 2993 l3 -398 75 0 75 0 3 398 2 397 -80 0 -80 0 2 -397z"/>
<path d="M6996 3258 c-35 -73 -120 -249 -190 -392 -69 -142 -126 -262 -126
-267 0 -6 36 -9 83 -7 l82 3 42 88 42 87 213 -2 212 -3 43 -87 43 -88 86 0
c47 0 84 4 82 9 -1 5 -88 185 -193 400 l-190 390 -83 1 -83 0 -63 -132z m222
-194 c40 -86 72 -157 70 -158 -2 0 -69 1 -149 4 l-146 5 71 153 c39 83 73 152
76 152 3 0 38 -70 78 -156z"/>
<path d="M8872 2999 c-106 -215 -192 -395 -192 -400 0 -6 35 -9 83 -7 l82 3
42 88 43 87 213 0 213 0 41 -90 41 -90 87 0 c49 0 85 4 83 9 -1 5 -88 185
-193 400 l-190 391 -81 0 -81 0 -191 -391z m346 68 c40 -84 72 -155 72 -158 0
-2 -67 -3 -149 -1 l-149 3 71 154 c40 85 75 154 78 155 3 0 38 -69 77 -153z"/>
</g>
</svg>
