<?xml version="1.0" standalone="no"?>
<!DOCTYPE svg PUBLIC "-//W3C//DTD SVG 20010904//EN"
 "http://www.w3.org/TR/2001/REC-SVG-20010904/DTD/svg10.dtd">
<svg version="1.0" xmlns="http://www.w3.org/2000/svg"
 width="1024.000000pt" height="600.000000pt" viewBox="0 0 1024.000000 600.000000"
 preserveAspectRatio="xMidYMid meet">

<g transform="translate(0.000000,600.000000) scale(0.100000,-0.100000)"
fill="#000000" stroke="none">
<path d="M5056 3384 c-145 -35 -289 -141 -343 -252 -23 -48 -27 -70 -28 -142
0 -73 4 -93 28 -141 57 -117 191 -212 342 -244 39 -8 117 -15 175 -15 175 0
316 41 397 114 l48 44 5 98 5 99 38 3 c24 2 37 8 37 18 0 11 -26 14 -150 14
-127 0 -150 -2 -150 -15 0 -9 9 -15 24 -15 52 0 56 -6 56 -96 0 -95 -7 -107
-82 -145 -143 -73 -352 -64 -480 21 -131 87 -181 260 -113 393 37 74 108 140
191 179 52 24 83 32 153 36 170 9 281 -39 380 -165 54 -69 60 -40 20 108 -8
33 -16 40 -72 63 -34 15 -93 33 -132 41 -88 18 -271 18 -349 -1z"/>
<path d="M1123 3383 c-104 -2 -173 -7 -173 -13 0 -6 9 -10 19 -10 11 0 27 -10
35 -22 14 -19 16 -70 16 -349 0 -342 0 -342 -44 -350 -11 -2 -21 -10 -24 -17
-7 -21 631 -11 705 10 113 32 173 101 173 195 -1 79 -29 126 -93 158 -31 15
-74 29 -96 32 -38 5 -59 23 -28 23 23 0 95 58 112 89 22 43 19 117 -6 158 -42
68 -163 105 -334 101 -49 -2 -168 -4 -262 -5z m391 -74 c58 -16 96 -58 96
-106 0 -55 -32 -100 -88 -126 -40 -18 -71 -22 -209 -25 l-163 -4 0 136 0 136
163 0 c89 0 180 -5 201 -11z m84 -357 c81 -43 109 -142 56 -196 -44 -43 -110
-56 -316 -63 l-188 -6 0 147 0 148 203 -4 c187 -3 205 -5 245 -26z"/>
<path d="M2170 3365 c0 -9 9 -15 25 -15 32 0 36 -8 250 -415 l170 -325 57 0
57 0 187 370 c127 253 191 370 202 371 10 1 23 1 30 0 6 -1 12 5 12 14 0 13
-18 15 -115 15 -115 0 -141 -9 -85 -29 17 -5 30 -16 30 -24 0 -17 -284 -578
-294 -580 -12 -3 -306 557 -303 578 1 14 11 21 30 23 15 2 27 9 27 18 0 11
-25 14 -140 14 -118 0 -140 -2 -140 -15z"/>
<path d="M3610 3370 c0 -5 8 -10 18 -10 11 0 26 -8 36 -18 15 -17 16 -53 14
-353 l-3 -334 -32 -14 c-18 -8 -33 -18 -33 -23 0 -4 157 -8 348 -8 l348 0 37
76 c41 82 40 110 -2 71 -62 -59 -78 -62 -311 -62 l-215 0 -2 305 c-3 326 0
352 45 358 12 2 22 8 22 13 0 5 -58 9 -135 9 -83 0 -135 -4 -135 -10z"/>
<path d="M6365 3054 c-202 -388 -216 -411 -250 -420 -57 -14 -18 -24 95 -24
115 0 154 11 90 25 -40 9 -40 40 2 116 l33 59 235 0 235 0 38 -71 c41 -74 40
-94 -4 -101 -11 -2 -21 -7 -22 -13 -1 -6 52 -11 141 -13 116 -2 142 0 142 11
0 8 -13 17 -29 20 -20 4 -36 18 -50 44 -12 21 -102 184 -200 363 l-178 325
-54 3 -54 2 -170 -326z m276 69 c39 -76 83 -157 96 -180 l25 -43 -191 0 -191
0 90 180 c50 99 92 180 94 180 3 0 37 -62 77 -137z"/>
<path d="M7550 3371 c0 -5 11 -12 25 -15 15 -4 30 -18 35 -32 15 -39 13 -657
-2 -672 -7 -7 -22 -12 -35 -12 -14 0 -23 -6 -23 -15 0 -13 22 -15 135 -15 113
0 135 2 135 15 0 9 -9 15 -25 15 -37 0 -45 27 -45 159 l0 121 140 0 140 0 36
-33 c20 -18 64 -78 98 -132 76 -124 94 -135 238 -142 83 -5 100 -4 96 8 -3 8
-21 17 -42 20 -55 9 -86 37 -138 125 -75 128 -81 137 -117 161 -19 13 -45 23
-59 23 -36 0 -16 15 41 30 136 36 202 162 146 277 -25 52 -62 80 -141 104 -53
17 -95 19 -349 19 -163 0 -289 -4 -289 -9z m457 -51 c88 -10 152 -36 177 -72
23 -32 21 -125 -3 -164 -11 -18 -40 -41 -67 -54 -42 -21 -66 -24 -206 -28
l-158 -5 0 161 0 161 43 4 c83 7 133 7 214 -3z"/>
<path d="M9030 3370 c0 -5 9 -10 19 -10 11 0 27 -7 35 -16 14 -13 16 -59 16
-347 0 -183 -4 -337 -8 -343 -4 -6 -19 -14 -34 -18 -16 -3 -28 -11 -28 -16 0
-6 53 -10 135 -10 82 0 135 4 135 10 0 5 -11 12 -25 16 -14 3 -30 14 -35 24
-6 11 -10 150 -10 337 0 272 2 322 16 341 8 12 24 22 35 22 10 0 19 5 19 10 0
6 -52 10 -135 10 -83 0 -135 -4 -135 -10z"/>
</g>
</svg>
