<?xml version="1.0" standalone="no"?>
<!DOCTYPE svg PUBLIC "-//W3C//DTD SVG 20010904//EN"
 "http://www.w3.org/TR/2001/REC-SVG-20010904/DTD/svg10.dtd">
<svg version="1.0" xmlns="http://www.w3.org/2000/svg"
 width="1024.000000pt" height="600.000000pt" viewBox="0 0 1024.000000 600.000000"
 preserveAspectRatio="xMidYMid meet">

<g transform="translate(0.000000,600.000000) scale(0.100000,-0.100000)"
fill="#000000" stroke="none">
<path d="M5335 5198 c-3 -7 -4 -823 -3 -1813 l3 -1800 98 -3 97 -3 0 427 0
426 58 60 58 60 478 -486 478 -486 129 0 c71 0 129 3 129 6 0 4 -195 203 -433
443 -504 507 -642 650 -642 661 0 5 171 186 380 401 209 216 400 414 423 441
l44 48 -129 -1 -128 0 -420 -436 -420 -435 -3 1251 -2 1251 -95 0 c-67 0 -97
-4 -100 -12z"/>
<path d="M4190 3580 c-151 -32 -292 -90 -400 -163 -265 -181 -445 -580 -409
-904 34 -311 168 -574 368 -722 186 -137 419 -221 616 -221 147 0 348 52 502
130 89 45 214 128 212 140 -1 3 -30 31 -65 64 l-63 59 -64 -42 c-191 -124
-372 -179 -556 -168 -217 12 -432 120 -564 282 -67 82 -152 259 -178 370 -38
163 -17 361 58 539 93 221 299 393 553 462 186 49 468 -6 659 -130 l74 -48 65
65 65 65 -49 35 c-119 87 -299 164 -452 193 -101 19 -268 17 -372 -6z"/>
<path d="M3659 1375 c-207 -76 -265 -329 -111 -482 55 -55 114 -78 202 -78 63
0 84 5 129 29 49 25 52 29 38 43 -14 15 -21 14 -69 -7 -95 -41 -185 -27 -263
41 -141 124 -84 361 100 415 64 18 104 14 171 -19 40 -19 46 -20 60 -5 14 14
13 17 -18 36 -68 42 -169 53 -239 27z"/>
<path d="M4400 1105 c0 -278 0 -285 20 -285 20 0 20 7 20 285 0 278 0 285 -20
285 -20 0 -20 -7 -20 -285z"/>
<path d="M4893 1379 c-16 -16 -5 -39 17 -39 25 0 35 18 20 35 -15 18 -22 19
-37 4z"/>
<path d="M5500 1105 c0 -278 0 -285 20 -285 19 0 20 7 20 123 0 115 2 125 23
145 l22 21 99 -145 c80 -115 105 -144 123 -144 13 0 23 2 23 5 0 3 -47 73
-105 156 -58 84 -105 156 -105 160 0 8 54 69 184 207 l40 42 -31 0 c-26 0 -46
-17 -143 -122 -62 -68 -117 -124 -121 -126 -5 -2 -9 53 -9 122 0 119 -1 126
-20 126 -20 0 -20 -7 -20 -285z"/>
<path d="M5900 1105 l0 -285 25 0 25 0 0 285 0 285 -25 0 -25 0 0 -285z"/>
<path d="M6456 1375 c-8 -22 1 -35 25 -35 15 0 20 6 17 22 -4 27 -33 36 -42
13z"/>
<path d="M4095 1180 c-78 -17 -125 -63 -146 -143 -16 -59 -1 -114 48 -168 62
-69 159 -77 240 -20 l43 31 0 -30 c0 -23 4 -30 20 -30 19 0 20 7 20 175 0 168
-1 175 -20 175 -15 0 -20 -7 -20 -25 0 -14 -4 -25 -10 -25 -5 0 -10 4 -10 8 0
26 -115 63 -165 52z m112 -60 c34 -20 56 -56 67 -105 8 -37 -27 -110 -65 -138
-69 -50 -170 -22 -209 58 -25 51 -25 69 0 122 35 78 134 108 207 63z"/>
<path d="M5117 1180 c-16 -5 -35 -15 -44 -22 -13 -10 -17 -10 -20 0 -3 6 -13
12 -24 12 -18 0 -19 -9 -19 -175 0 -168 1 -175 20 -175 19 0 20 7 20 123 0
139 8 164 62 190 33 16 40 16 71 4 60 -26 67 -46 67 -189 0 -121 1 -128 20
-128 19 0 20 7 20 133 0 113 -3 137 -20 164 -30 50 -100 78 -153 63z"/>
<path d="M6164 1180 c-143 -30 -196 -204 -95 -310 35 -37 89 -60 141 -60 39 1
103 34 134 70 25 30 26 34 11 43 -13 7 -25 2 -49 -22 -77 -75 -187 -58 -235
36 -27 52 -24 53 148 53 98 0 162 4 166 10 8 14 -13 78 -37 113 -35 49 -120
80 -184 67z m92 -49 c35 -16 84 -66 84 -85 0 -3 -63 -6 -140 -6 l-141 0 15 28
c19 36 37 51 83 68 49 17 51 17 99 -5z"/>
<path d="M6693 1180 c-18 -4 -40 -14 -50 -21 -13 -11 -17 -11 -20 -1 -3 6 -13
12 -24 12 -18 0 -19 -9 -19 -175 0 -168 1 -175 20 -175 19 0 20 7 20 120 0
138 12 173 63 195 43 18 82 9 112 -27 24 -28 25 -36 25 -159 l0 -129 25 0 25
0 0 118 c0 93 -4 125 -19 159 -29 63 -93 97 -158 83z"/>
<path d="M4492 1161 c13 -37 164 -360 168 -360 4 -1 50 98 144 312 l26 57 -23
0 c-20 0 -31 -19 -84 -137 l-62 -137 -54 116 c-31 64 -58 126 -62 137 -4 14
-15 21 -32 21 -13 0 -23 -4 -21 -9z"/>
<path d="M4890 995 c0 -168 1 -175 20 -175 19 0 20 7 20 175 0 168 -1 175 -20
175 -19 0 -20 -7 -20 -175z"/>
<path d="M6460 995 c0 -168 1 -175 20 -175 19 0 20 7 20 175 0 168 -1 175 -20
175 -19 0 -20 -7 -20 -175z"/>
</g>
</svg>
