<?xml version="1.0" standalone="no"?>
<!DOCTYPE svg PUBLIC "-//W3C//DTD SVG 20010904//EN"
 "http://www.w3.org/TR/2001/REC-SVG-20010904/DTD/svg10.dtd">
<svg version="1.0" xmlns="http://www.w3.org/2000/svg"
 width="1024.000000pt" height="600.000000pt" viewBox="0 0 1024.000000 600.000000"
 preserveAspectRatio="xMidYMid meet">

<g transform="translate(0.000000,600.000000) scale(0.100000,-0.100000)"
fill="#000000" stroke="none">
<path d="M6066 4877 c-18 -13 -18 -14 3 -29 12 -9 32 -13 43 -10 14 3 19 1 14
-6 -10 -17 -34 -15 -64 7 -15 10 -38 20 -52 23 -14 3 -34 9 -45 13 -19 8 -19
8 -2 -12 17 -20 17 -22 -9 -62 -15 -22 -31 -41 -35 -41 -10 0 -43 -109 -36
-117 4 -3 2 -12 -4 -20 -13 -15 -22 -89 -13 -115 3 -10 24 -26 47 -37 23 -10
67 -40 97 -65 55 -46 137 -92 148 -82 14 15 13 108 -3 155 -18 55 -31 69 -48
52 -17 -17 -31 -13 -17 4 7 8 22 15 34 15 11 0 30 7 40 15 11 8 23 15 26 15
11 0 20 -160 13 -223 -3 -31 -10 -54 -15 -51 -5 3 -8 -2 -6 -12 3 -17 -4 -19
-57 -19 -50 0 -68 -5 -110 -32 -28 -17 -96 -54 -152 -82 -100 -50 -102 -51
-94 -79 30 -103 97 -170 206 -203 l74 -23 30 -81 c17 -45 31 -85 31 -91 0 -5
12 -26 26 -47 14 -21 29 -63 34 -93 5 -31 16 -61 24 -68 10 -8 12 -17 5 -33
l-8 -23 -416 0 -415 0 -2 48 c-1 26 -2 64 -3 84 0 30 -8 46 -41 80 -87 90 -86
113 11 201 60 54 75 74 75 96 0 21 6 30 23 35 44 12 96 5 163 -20 61 -23 79
-26 153 -20 46 3 86 8 89 10 3 3 -13 25 -36 50 -22 24 -48 58 -57 76 -9 17
-22 29 -28 27 -93 -38 -266 -102 -356 -131 -141 -46 -387 -107 -404 -100 -13
5 -223 -43 -339 -77 -55 -16 -72 -18 -90 -8 -21 11 -19 13 31 29 32 11 68 33
91 55 37 36 111 172 126 229 8 35 21 33 29 -5 4 -17 26 -51 49 -75 42 -43 59
-50 123 -44 16 1 24 -6 29 -25 6 -25 10 -26 43 -20 50 9 52 12 45 50 -5 27 -2
35 14 44 32 17 35 14 29 -35 -3 -31 -1 -44 7 -41 6 2 36 12 67 20 55 16 55 17
73 74 28 90 101 223 156 285 27 31 50 58 50 61 0 13 -109 29 -163 24 -69 -6
-187 -62 -238 -111 -56 -55 -89 -150 -89 -256 l0 -50 -45 0 c-56 0 -103 38
-134 111 l-22 51 39 66 c22 37 59 89 82 115 23 26 40 50 37 53 -11 11 -97 -79
-137 -142 -22 -36 -62 -110 -89 -167 -76 -162 -145 -216 -274 -217 -122 0
-166 33 -283 210 -116 176 -150 195 -378 210 -190 13 -206 17 -239 56 -30 36
-64 47 -53 18 5 -13 2 -14 -11 -9 -10 5 -32 10 -50 13 -25 3 -32 0 -38 -17
-13 -42 30 -92 124 -143 30 -17 31 -18 31 -93 0 -92 -9 -111 -63 -134 -59 -26
-81 -54 -82 -104 0 -35 -6 -47 -44 -82 -27 -25 -66 -48 -104 -61 l-61 -21 47
-11 47 -12 0 -60 c0 -97 43 -170 124 -213 57 -30 155 -30 212 0 88 47 147 160
126 244 -11 44 -11 45 41 54 20 4 37 10 37 14 0 3 -26 12 -57 20 -42 9 -70 24
-99 51 -54 49 -101 64 -181 57 l-63 -6 0 28 c0 16 10 36 23 48 26 25 100 47
126 38 11 -3 32 -8 47 -10 16 -2 67 -16 114 -30 105 -31 230 -47 345 -43 l89
3 25 -44 24 -44 79 6 c43 4 78 4 78 2 0 -3 -15 -11 -32 -18 -18 -8 -46 -28
-63 -45 -16 -17 -56 -40 -88 -52 -66 -25 -69 -41 -10 -54 41 -8 41 -9 45 -62
14 -163 214 -239 338 -128 54 49 73 93 68 162 -2 31 -8 65 -12 74 -6 13 -2 20
15 27 60 22 67 22 97 -4 52 -44 112 -25 112 35 0 48 43 87 118 109 37 11 81
22 97 26 l30 6 -31 -33 c-27 -29 -34 -49 -58 -168 -28 -147 -31 -180 -16 -180
13 0 30 -42 21 -52 -3 -4 -16 -5 -28 -2 -33 9 -36 95 -7 208 24 94 32 178 15
161 -6 -6 -17 -46 -26 -90 -9 -44 -23 -102 -31 -129 -8 -29 -10 -54 -5 -60 5
-6 8 -29 7 -51 l-2 -40 -166 -3 c-132 -2 -168 -6 -178 -17 -11 -13 18 -15 234
-15 135 0 246 2 246 4 0 2 -9 23 -20 47 -24 54 -25 127 -2 194 17 48 96 165
112 165 4 0 40 29 80 65 40 36 80 65 89 65 9 0 -13 -27 -54 -63 -38 -34 -85
-77 -104 -96 l-35 -33 36 -32 c19 -17 54 -46 77 -64 22 -18 41 -38 41 -44 0
-5 7 -25 16 -44 16 -33 16 -35 -7 -53 l-24 -19 23 -24 c12 -13 22 -27 22 -31
0 -4 -49 -7 -110 -7 -93 0 -109 -2 -104 -15 5 -13 86 -15 640 -15 349 0 634 2
634 5 0 18 -26 55 -46 64 -39 17 -61 65 -68 148 -4 42 -13 88 -21 104 -37 70
-49 231 -21 274 9 14 16 38 16 54 0 27 4 31 38 37 136 24 224 43 229 48 13 13
-4 15 -45 5 -41 -9 -46 -7 -110 34 -37 24 -84 59 -104 79 l-38 35 6 90 c8 113
-2 222 -22 230 -8 3 -26 -5 -39 -17 -29 -27 -41 -21 -55 28 -17 63 -14 69 30
74 39 3 41 2 50 -34 6 -20 14 -39 19 -42 4 -3 23 7 41 23 22 18 41 26 55 23
19 -5 18 -3 -4 22 -20 21 -21 26 -8 26 9 0 19 5 23 12 5 7 2 9 -8 5 -17 -6
-57 17 -47 28 4 3 13 0 20 -8 14 -13 61 -9 60 6 -1 4 -1 13 -1 21 0 8 -25 23
-62 35 -40 13 -72 32 -88 50 -30 36 -86 49 -114 28z m187 -186 c3 -13 -5 -29
-23 -46 l-28 -27 -7 24 c-4 12 -9 31 -11 40 -3 10 2 18 13 21 37 10 51 6 56
-12z m-2742 -396 c71 -34 80 -35 239 -44 177 -10 234 -23 285 -67 21 -18 24
-23 10 -18 -11 3 -38 13 -60 21 -32 12 -74 13 -220 8 -169 -7 -183 -6 -237 15
-35 13 -69 35 -87 56 -32 36 -36 46 -24 57 10 11 17 9 94 -28z m1636 -32 c-17
-30 -22 -56 -24 -124 -2 -81 -4 -88 -33 -118 -16 -18 -30 -28 -30 -23 0 6 5
14 10 17 6 3 10 39 10 79 0 82 12 126 47 174 33 44 47 41 20 -5z m1150 -89
c24 -18 52 -35 63 -39 34 -11 22 -22 -30 -29 -28 -4 -57 -9 -65 -12 -10 -4
-15 0 -15 14 0 11 -7 36 -15 56 -16 38 -12 62 8 49 7 -4 31 -22 54 -39z
m-2618 -207 c35 -23 20 -31 -24 -13 -20 9 -47 14 -59 11 -39 -9 -48 7 -29 52
l18 41 35 -37 c19 -21 46 -45 59 -54z m2331 -44 c41 -3 81 -10 87 -15 41 -33
-61 -38 -139 -7 -57 22 -92 47 -48 34 14 -4 59 -9 100 -12z m149 -189 c25 -71
48 -131 52 -134 13 -9 39 -90 39 -121 0 -19 6 -30 20 -34 11 -3 20 -11 20 -16
0 -16 -42 -6 -50 11 -17 35 -38 88 -54 135 -10 28 -35 101 -57 163 -42 122
-45 136 -26 130 6 -3 32 -63 56 -134z m-2586 60 c14 -15 -8 -34 -39 -34 -27 0
-34 4 -34 20 0 16 7 20 33 20 19 0 36 -3 40 -6z m1269 -26 c-9 -18 -18 -35
-19 -37 -1 -2 -21 -7 -44 -11 -35 -7 -47 -4 -71 13 -15 11 -26 23 -23 25 7 8
129 41 152 41 22 1 22 1 5 -31z m-1362 12 c0 -5 -2 -10 -4 -10 -3 0 -8 5 -11
10 -3 6 -1 10 4 10 6 0 11 -4 11 -10z m-32 -18 c2 -7 -7 -12 -22 -12 -27 0
-35 15 -13 23 17 7 30 3 35 -11z m188 3 c20 -15 13 -18 -23 -9 -13 4 -23 10
-23 15 0 14 24 11 46 -6z m784 -23 c0 -4 -18 -13 -40 -19 -45 -12 -55 0 -12
15 34 13 52 14 52 4z m53 1 c-7 -2 -19 -2 -25 0 -7 3 -2 5 12 5 14 0 19 -2 13
-5z m-983 -10 c0 -5 3 -18 6 -30 5 -18 2 -23 -12 -23 -18 0 -64 37 -64 52 0
10 70 11 70 1z m70 2 c0 -2 -5 -16 -12 -30 -14 -31 -29 -28 -39 8 -7 25 -5 27
22 27 16 0 29 -2 29 -5z m90 -4 c0 -13 -55 -51 -74 -51 -19 0 -19 1 -6 34 8
21 16 26 45 26 19 0 35 -4 35 -9z m-230 -26 l23 -25 -51 0 c-56 0 -57 1 -42
31 15 26 42 24 70 -6z m1078 -19 c-13 -19 -31 -37 -41 -40 -15 -4 -18 1 -15
32 3 34 6 37 38 42 19 3 36 5 38 4 2 -1 -7 -18 -20 -38z m172 35 c0 -12 -56
-25 -70 -16 -22 13 -8 25 30 25 22 0 40 -4 40 -9z m-981 -15 c9 -11 5 -15 -23
-18 -34 -4 -35 -3 -19 14 19 22 27 22 42 4z m81 4 c0 -5 -9 -10 -20 -10 -11 0
-20 5 -20 10 0 6 9 10 20 10 11 0 20 -4 20 -10z m-465 -10 c-3 -5 -16 -10 -28
-10 -18 0 -19 2 -7 10 20 13 43 13 35 0z m1115 -25 c0 -40 -14 -45 -41 -12
-28 34 -27 35 34 46 4 0 7 -15 7 -34z m139 21 c9 -11 5 -16 -20 -25 -39 -14
-43 -11 -23 17 18 26 27 27 43 8z m-207 -23 c34 -40 32 -43 -26 -43 -60 0 -68
8 -36 40 25 25 42 25 62 3z m-647 -22 c-14 -13 -118 -31 -128 -22 -15 14 28
40 73 43 48 3 71 -6 55 -21z m-135 9 c0 -5 -4 -10 -10 -10 -5 0 -10 5 -10 10
0 6 5 10 10 10 6 0 10 -4 10 -10z m-166 -19 c28 -9 51 -22 53 -27 4 -11 -115
-37 -128 -28 -19 11 -6 75 15 73 6 0 33 -8 60 -18z m66 9 c0 -12 -17 -12 -45
0 -17 7 -15 9 13 9 17 1 32 -3 32 -9z m768 -2 c-5 -16 -48 -24 -48 -9 0 8 17
16 43 20 5 0 7 -5 5 -11z m348 3 c-6 -9 -91 -41 -109 -41 -23 0 3 25 39 36 48
15 77 17 70 5z m-871 -71 c-4 -17 -12 -30 -18 -27 -7 2 -36 12 -64 21 -29 10
-53 21 -53 25 0 11 123 29 134 20 4 -4 5 -21 1 -39z m891 16 c9 -51 1 -56 -58
-41 -67 18 -80 31 -42 45 16 6 38 14 49 19 35 16 44 12 51 -23z m-270 3 c25
-6 43 -16 41 -22 -2 -6 -27 -21 -55 -34 l-51 -22 -7 34 c-10 56 -1 62 72 44z
m-873 -15 c8 -8 -83 -84 -100 -84 -15 0 -36 36 -30 53 3 10 40 21 118 36 3 0
8 -2 12 -5z m227 -49 c11 -7 -15 -65 -29 -65 -11 0 -91 89 -91 101 0 7 97 -22
120 -36z m-200 16 c0 -23 -44 -121 -54 -121 -20 0 -57 31 -54 45 3 14 86 84
101 84 4 1 7 -3 7 -8z m1093 -21 c13 0 7 -28 -12 -51 l-19 -24 -36 40 c-50 56
-47 67 12 50 26 -8 50 -15 55 -15z m-1047 -51 c6 -32 8 -61 6 -64 -3 -3 -20
-5 -39 -5 -42 0 -42 6 2 129 9 23 19 2 31 -60z m64 24 l42 -48 -22 -17 c-38
-31 -57 -23 -64 25 -4 23 -9 52 -13 65 -8 35 12 26 57 -25z m800 41 c0 -10
-61 -94 -69 -94 -10 0 -55 49 -50 54 8 9 94 45 107 45 6 1 12 -2 12 -5z m30
-75 l0 -61 -32 6 c-18 3 -36 10 -41 15 -10 10 48 101 63 101 6 0 10 -28 10
-61z m74 20 c19 -23 33 -45 31 -50 -6 -9 -75 -33 -79 -27 -2 1 -6 29 -8 61 -6
70 6 74 56 16z"/>
<path d="M5820 4818 c0 -4 7 -11 15 -15 15 -9 10 -38 -18 -100 -5 -12 -7 -31
-4 -42 3 -12 1 -23 -3 -26 -14 -9 -8 -104 7 -116 7 -6 13 -29 13 -50 0 -29 -8
-47 -32 -75 -32 -36 -33 -40 -37 -146 -2 -59 0 -108 3 -108 20 0 209 106 268
150 13 10 -116 139 -156 155 l-38 16 4 107 c3 98 6 114 36 175 18 37 39 67 47
67 8 0 16 4 20 9 3 6 -21 9 -60 8 -36 -1 -65 -5 -65 -9z"/>
<path d="M5473 4328 c-70 -73 -193 -321 -170 -344 8 -8 174 43 302 93 50 20
91 36 92 37 2 1 -6 26 -17 54 -12 31 -20 77 -20 111 0 66 3 64 -100 76 -53 6
-56 5 -87 -27z"/>
<path d="M5709 4353 c-33 -8 -30 -151 5 -199 12 -15 14 -11 20 37 4 31 3 67
-3 81 -5 14 -8 28 -7 29 2 2 6 16 10 32 6 27 5 28 -25 20z"/>
<path d="M6771 4336 c-13 -14 -38 -26 -55 -28 -25 -2 -30 -7 -28 -23 2 -11 4
-37 6 -57 1 -21 7 -43 14 -50 9 -9 7 -18 -12 -37 -36 -39 -76 -151 -76 -211 0
-37 -10 -74 -35 -131 -19 -44 -35 -91 -35 -103 0 -13 16 -65 35 -115 58 -149
51 -161 -95 -161 -69 0 -91 -3 -88 -12 5 -14 192 -24 235 -13 37 9 54 32 43
61 -6 14 -10 37 -10 52 0 15 -10 55 -22 89 -22 60 -22 63 -5 80 17 17 19 17
30 -2 24 -40 38 -91 44 -155 5 -60 3 -68 -21 -97 -14 -17 -26 -34 -26 -37 0
-14 37 -4 72 20 36 25 38 30 38 80 0 29 -5 75 -11 103 -14 67 6 111 52 111 24
0 29 4 25 18 -2 9 -13 50 -23 90 l-18 74 28 20 c45 33 50 51 31 121 -9 34 -28
77 -41 95 -23 31 -24 35 -9 51 10 11 14 25 10 35 -4 11 3 27 21 46 31 33 28
58 -12 90 -32 25 -35 25 -62 -4z m-3 -90 c28 -47 17 -83 -34 -118 -47 -32 -59
-27 -20 9 24 22 26 28 14 37 -21 16 -28 54 -16 82 15 33 32 30 56 -10z m-64
-356 c-6 -6 -23 -8 -37 -5 -25 7 -26 8 -10 32 l16 24 21 -20 c14 -15 17 -24
10 -31z m46 -19 c0 -11 -5 -23 -11 -27 -8 -4 -8 -9 0 -17 6 -6 11 -24 11 -39
0 -19 5 -28 16 -28 10 0 14 -6 10 -17 -2 -10 -8 -33 -11 -51 -5 -25 -11 -32
-22 -28 -13 5 -14 1 -10 -24 4 -17 2 -30 -3 -30 -13 0 -36 56 -50 124 -11 55
-30 77 -30 36 0 -12 -8 -35 -17 -53 -9 -18 -16 -38 -15 -44 2 -7 -2 -13 -8
-13 -5 0 -9 -5 -7 -11 5 -26 -21 -17 -33 11 -14 33 -16 24 42 160 23 55 23 55
51 42 15 -7 27 -20 27 -28 0 -25 17 -6 23 26 7 33 37 42 37 11z m-120 -270 c7
-14 7 -22 -1 -27 -13 -8 -41 24 -33 37 9 15 23 10 34 -10z m123 -26 c7 -16 -8
-29 -23 -20 -15 9 -12 35 4 35 8 0 16 -7 19 -15z"/>
<path d="M6730 4250 c0 -5 5 -10 11 -10 5 0 7 5 4 10 -3 6 -8 10 -11 10 -2 0
-4 -4 -4 -10z"/>
<path d="M3230 3405 c0 -12 14 -15 66 -15 58 0 65 2 54 15 -8 10 -31 15 -66
15 -41 0 -54 -4 -54 -15z"/>
<path d="M3692 3408 c-7 -7 -12 -14 -12 -17 0 -4 138 -5 307 -3 269 2 304 4
287 17 -25 19 -563 22 -582 3z"/>
<path d="M6780 3405 c-11 -13 -6 -15 39 -15 39 0 51 4 51 15 0 11 -11 15 -39
15 -22 0 -44 -6 -51 -15z"/>
<path d="M3232 3329 l3 -34 1818 -3 1817 -2 0 35 0 35 -1192 -5 c-656 -2
-1222 -4 -1258 -3 -97 2 -804 1 -885 -2 -38 -1 -123 1 -188 5 l-118 7 3 -33z"/>
<path d="M6825 3101 l38 -40 139 -3 c76 -2 138 -1 138 2 0 3 -14 22 -31 43
l-30 37 -147 0 -146 0 39 -39z"/>
<path d="M7845 3017 c-147 -49 -215 -131 -215 -259 1 -155 105 -238 350 -279
190 -31 260 -80 260 -180 0 -118 -129 -188 -292 -159 -107 19 -164 68 -199
174 l-18 51 -65 3 -66 3 0 -171 0 -170 71 0 71 0 -4 35 c-2 19 -2 35 0 35 2 0
20 -13 40 -30 79 -63 248 -91 363 -60 109 30 203 107 227 188 21 68 15 180
-12 238 -44 95 -124 139 -317 174 -159 28 -186 37 -227 75 -31 28 -37 40 -37
74 0 145 230 189 361 69 24 -22 48 -55 52 -72 8 -31 8 -31 78 -31 l69 0 0 140
0 140 -67 3 -68 3 0 -37 0 -37 -24 22 c-59 55 -242 87 -331 58z"/>
<path d="M1870 2940 l0 -70 60 0 60 0 0 -350 0 -350 -60 0 -60 0 0 -70 0 -70
195 0 195 0 0 70 0 70 -60 0 -60 0 0 160 0 160 220 0 220 0 0 -160 0 -160 -60
0 -60 0 0 -70 0 -70 200 0 201 0 -3 68 -3 67 -62 3 -63 3 0 349 0 350 65 0 66
0 -3 68 -3 67 -197 3 -198 2 0 -70 0 -70 60 0 60 0 0 -120 0 -120 -220 0 -220
0 0 120 0 120 60 0 60 0 0 70 0 70 -195 0 -195 0 0 -70z"/>
<path d="M3040 2940 l0 -70 65 0 65 0 0 -350 0 -350 -65 0 -65 0 0 -70 0 -70
403 0 402 0 0 160 0 160 -72 0 -73 0 0 -90 0 -90 -195 0 -195 0 0 160 0 160
170 0 170 0 0 70 0 70 -167 2 -168 3 0 115 0 115 195 0 195 0 3 -68 3 -68 65
3 65 3 0 135 0 135 -400 3 -401 2 0 -70z"/>
<path d="M4067 3003 c-4 -3 -7 -35 -7 -70 l0 -63 65 0 65 0 0 -350 0 -349 -62
-3 -63 -3 -3 -67 -3 -68 201 0 201 0 -3 68 -3 67 -63 3 -63 3 3 152 3 152 155
0 c132 0 160 -3 183 -18 52 -34 56 -50 63 -245 l7 -182 134 0 133 0 0 70 0 70
-65 0 -65 0 0 115 c0 132 -12 169 -75 223 -21 19 -30 32 -21 32 25 0 88 62
107 105 45 99 11 244 -72 305 -77 55 -111 60 -444 60 -166 0 -305 -3 -308 -7z
m657 -156 c30 -20 56 -71 56 -110 0 -35 -40 -89 -80 -109 -29 -15 -63 -18
-202 -18 l-168 0 0 123 c0 68 3 127 8 131 4 4 86 6 182 4 150 -2 180 -6 204
-21z"/>
<path d="M5170 2940 l0 -70 65 0 65 0 0 -350 0 -350 -65 0 -65 0 0 -70 0 -70
200 0 200 0 0 70 0 70 -60 0 -60 0 1 333 c0 182 3 328 5 322 2 -5 64 -154 138
-330 l134 -320 43 0 43 0 133 315 c73 173 133 320 133 327 0 6 3 14 8 16 4 3
7 -145 7 -329 l0 -334 -62 0 -63 0 0 -70 0 -70 200 0 200 0 0 70 0 70 -65 0
-65 0 0 350 0 350 65 0 65 0 0 70 0 70 -179 0 -178 0 -118 -287 c-114 -279
-135 -323 -135 -292 0 7 -52 140 -114 294 l-115 280 -180 3 -181 2 0 -70z"/>
<path d="M6559 3008 c0 -2 -1 -33 -2 -70 l-2 -67 65 -3 65 -3 3 -347 2 -347
-66 -3 -66 -3 -2 -68 -1 -67 403 0 402 0 0 160 0 160 -70 0 -70 0 0 -90 0 -90
-195 0 -195 0 0 160 0 160 170 0 170 0 0 70 0 70 -170 0 -170 0 0 120 0 120
195 0 194 0 3 -67 3 -68 65 0 65 0 3 138 3 137 -401 0 c-220 0 -400 -1 -401
-2z"/>
<path d="M6157 1676 c-123 -33 -157 -160 -65 -242 12 -12 60 -43 105 -69 55
-32 87 -58 97 -78 22 -47 4 -81 -53 -97 -48 -12 -104 1 -158 39 l-43 31 0 -51
0 -50 48 -21 c64 -29 173 -30 220 -3 47 28 72 73 72 130 0 81 -28 111 -182
199 -77 43 -97 88 -56 126 32 30 119 28 176 -5 l42 -24 0 45 c0 41 -3 46 -32
58 -52 21 -119 26 -171 12z"/>
<path d="M3830 1401 l0 -281 40 0 40 0 0 119 0 118 89 5 c102 6 142 24 179 79
20 28 23 43 20 87 -5 60 -28 97 -79 127 -28 17 -56 21 -161 24 l-128 3 0 -281z
m229 198 c37 -13 51 -35 51 -83 0 -60 -43 -86 -141 -86 l-59 0 0 90 0 90 59 0
c32 0 72 -5 90 -11z"/>
<path d="M4404 1409 c-65 -149 -120 -275 -122 -280 -2 -5 17 -9 41 -9 l45 0
26 68 c15 37 30 73 34 80 6 9 40 12 131 10 l122 -3 33 -75 32 -75 46 -3 46 -3
-127 280 c-125 278 -126 280 -157 281 -30 0 -31 -1 -150 -271z m188 73 c21
-48 40 -95 44 -104 6 -16 -2 -18 -81 -18 -65 0 -86 3 -83 13 31 88 74 197 78
197 3 0 22 -40 42 -88z"/>
<path d="M5028 1674 c-5 -4 -8 -130 -8 -281 l0 -273 45 0 45 0 0 120 0 120 30
0 c62 0 97 -33 195 -182 38 -58 38 -58 88 -58 38 0 47 3 40 13 -5 6 -35 50
-65 97 -31 47 -72 100 -92 119 l-36 34 31 19 c63 38 82 130 41 200 -30 51 -86
72 -202 76 -58 2 -108 0 -112 -4z m221 -88 c26 -23 35 -65 21 -100 -12 -32
-62 -56 -120 -56 l-40 0 0 91 0 91 60 -4 c38 -3 66 -11 79 -22z"/>
<path d="M5690 1401 l0 -281 43 0 42 0 -2 277 -2 278 -41 3 -40 3 0 -280z"/>
</g>
</svg>
