<?xml version="1.0" standalone="no"?>
<!DOCTYPE svg PUBLIC "-//W3C//DTD SVG 20010904//EN"
 "http://www.w3.org/TR/2001/REC-SVG-20010904/DTD/svg10.dtd">
<svg version="1.0" xmlns="http://www.w3.org/2000/svg"
 width="1024.000000pt" height="600.000000pt" viewBox="0 0 1024.000000 600.000000"
 preserveAspectRatio="xMidYMid meet">

<g transform="translate(0.000000,600.000000) scale(0.100000,-0.100000)"
fill="#000000" stroke="none">
<path d="M4045 4523 c-9 -23 -325 -888 -918 -2518 l-164 -450 -49 -7 c-27 -3
-249 -7 -493 -7 -418 -1 -443 0 -436 17 3 9 243 427 532 927 290 501 659 1139
820 1419 162 279 297 515 300 522 4 12 -147 14 -1006 12 l-1011 -3 0 -440 c0
-291 3 -441 10 -443 6 -2 10 18 10 51 0 77 26 206 61 301 79 217 234 380 435
458 126 48 228 58 627 58 196 0 357 -2 357 -5 0 -3 -40 -74 -89 -158 -48 -84
-230 -397 -403 -697 -173 -300 -508 -878 -743 -1285 -235 -407 -430 -743 -432
-748 -2 -4 502 -6 1122 -5 l1125 3 3 423 c1 302 -1 422 -9 422 -7 0 -14 -32
-17 -80 -24 -303 -202 -557 -472 -672 -69 -29 -201 -65 -210 -57 -4 5 282 805
336 942 l12 27 496 -2 496 -3 177 -485 c97 -267 177 -488 178 -492 0 -5 -79
-8 -175 -8 -110 0 -175 -4 -175 -10 0 -14 1376 -14 1385 0 4 7 -57 10 -174 10
l-181 0 0 746 0 746 293 -4 c257 -4 301 -7 369 -26 205 -56 327 -159 379 -322
18 -56 22 -98 26 -295 l5 -230 -102 -280 c-56 -154 -107 -292 -112 -307 l-10
-28 -144 0 c-89 0 -144 -4 -144 -10 0 -6 105 -10 294 -10 186 0 297 4 301 10
4 6 -43 10 -134 10 -103 0 -141 3 -141 12 0 17 181 511 191 523 5 5 9 -5 9
-27 0 -56 45 -219 80 -289 103 -208 263 -303 510 -303 157 0 261 32 345 105
57 50 40 52 -30 4 -74 -50 -117 -65 -193 -65 -112 0 -186 73 -228 227 -12 44
-18 134 -23 378 -4 176 -12 331 -18 345 -6 14 -13 37 -17 52 l-6 28 362 0 363
0 175 -481 c96 -265 176 -487 178 -495 3 -12 -27 -14 -172 -14 -111 0 -176 -4
-176 -10 0 -7 207 -10 600 -10 393 0 600 3 600 10 0 6 -68 10 -185 10 -167 0
-185 2 -194 18 -5 10 -251 682 -546 1492 -295 811 -540 1479 -545 1484 -5 5
-12 7 -15 4 -6 -6 -43 -107 -395 -1074 -121 -330 -224 -612 -229 -627 l-10
-27 -75 51 c-129 87 -287 142 -491 172 l-90 13 71 12 c337 56 607 272 669 533
55 233 -58 496 -280 654 -112 80 -232 129 -405 167 -90 20 -129 21 -797 25
-492 3 -703 1 -703 -6 0 -7 58 -11 175 -11 l175 0 -1 -1112 c0 -612 -3 -1108
-5 -1103 -3 6 -195 532 -427 1169 -233 638 -428 1161 -434 1163 -6 2 -14 -4
-18 -14z m1834 -127 c215 -55 348 -193 413 -431 19 -70 22 -106 22 -285 0
-225 -11 -301 -60 -410 -30 -67 -103 -142 -162 -167 -97 -41 -132 -45 -429
-50 l-293 -5 0 687 0 687 223 -5 c157 -4 241 -10 286 -21z m-2029 -526 c0 -6
106 -301 235 -656 129 -356 235 -650 235 -655 0 -5 -210 -9 -485 -9 -267 0
-485 1 -485 3 0 1 108 299 240 661 132 362 240 660 240 662 0 2 5 4 10 4 6 0
10 -5 10 -10z m3493 -648 c131 -361 238 -660 237 -664 0 -5 -162 -8 -359 -8
l-360 0 -35 68 c-20 37 -57 91 -82 120 l-46 53 198 544 c108 300 200 545 203
545 3 0 113 -296 244 -658z"/>
</g>
</svg>
